<svg width="991" height="721.5" xmlns="http://www.w3.org/2000/svg" xmlns:xlink="http://www.w3.org/1999/xlink" fill="#ffffff"><defs><style>
  text {
    fill: #212529;
    font-family: Helvetica Neue, Helvetica, Arial, sans-serif;
    font-size: 16px;
  }

  marker, text {
    fill-opacity: 1;
  }

  * {
    overflow: visible;
  }
</style></defs><svg x="755" y="15" width="170" height="130" class="User" fill="#ffffff"><g><rect width="100%" height="40" stroke="none" fill="white" class="sc-fqkvVR eDtKfR"></rect><rect y="40" width="100%" height="90" stroke="none" fill="white" class="sc-fqkvVR eDtKfR"></rect><svg height="40"><text x="50%" y="50%" dominant-baseline="middle" text-anchor="middle" font-weight="bold" pointer-events="none">User</text></svg><svg x="0" y="40.5" width="169" height="30" class="username" fill="#ffffff"><g><rect width="100%" height="100%" stroke="none" fill="white" class="sc-fqkvVR eDtKfR"></rect><text x="10" y="50%" dominant-baseline="middle" text-anchor="start" font-weight="normal" pointer-events="none">username</text></g></svg><svg x="0" y="70.5" width="169" height="30" class="password" fill="#ffffff"><g><rect width="100%" height="100%" stroke="none" fill="white" class="sc-fqkvVR eDtKfR"></rect><text x="10" y="50%" dominant-baseline="middle" text-anchor="start" font-weight="normal" pointer-events="none">password</text></g></svg><svg x="0" y="100.5" width="169" height="30" class="userType" fill="#ffffff"><g><rect width="100%" height="100%" stroke="none" fill="white" class="sc-fqkvVR eDtKfR"></rect><text x="10" y="50%" dominant-baseline="middle" text-anchor="start" font-weight="normal" pointer-events="none">userType</text></g></svg><rect width="100%" height="100%" stroke="black" fill="none" class="sc-fqkvVR jAaomD"></rect><path d="M 0 40 H 170" stroke="black" fill="white" class="sc-gEvEer fkqzOi"></path></g></svg><svg x="15" y="95" width="160" height="160" class="Rete" fill="#ffffff"><g><rect width="100%" height="40" stroke="none" fill="white" class="sc-fqkvVR eDtKfR"></rect><rect y="40" width="100%" height="120" stroke="none" fill="white" class="sc-fqkvVR eDtKfR"></rect><svg height="40"><text x="50%" y="50%" dominant-baseline="middle" text-anchor="middle" font-weight="bold" pointer-events="none">Rete</text></svg><svg x="0" y="40.5" width="159" height="30" class="code" fill="#ffffff"><g><rect width="100%" height="100%" stroke="none" fill="white" class="sc-fqkvVR eDtKfR"></rect><text x="10" y="50%" dominant-baseline="middle" text-anchor="start" font-weight="normal" pointer-events="none">code</text></g></svg><svg x="0" y="70.5" width="159" height="30" class="name" fill="#ffffff"><g><rect width="100%" height="100%" stroke="none" fill="white" class="sc-fqkvVR eDtKfR"></rect><text x="10" y="50%" dominant-baseline="middle" text-anchor="start" font-weight="normal" pointer-events="none">name</text></g></svg><svg x="0" y="100.5" width="159" height="30" class="description" fill="#ffffff"><g><rect width="100%" height="100%" stroke="none" fill="white" class="sc-fqkvVR eDtKfR"></rect><text x="10" y="50%" dominant-baseline="middle" text-anchor="start" font-weight="normal" pointer-events="none">description</text></g></svg><svg x="0" y="130.5" width="159" height="30" class="gateways" fill="#ffffff"><g><rect width="100%" height="100%" stroke="none" fill="white" class="sc-fqkvVR eDtKfR"></rect><text x="10" y="50%" dominant-baseline="middle" text-anchor="start" font-weight="normal" pointer-events="none">gateways</text></g></svg><rect width="100%" height="100%" stroke="black" fill="none" class="sc-fqkvVR jAaomD"></rect><path d="M 0 40 H 160" stroke="black" fill="white" class="sc-gEvEer fkqzOi"></path></g></svg><svg x="435" y="35" width="160" height="160" class="Gateway" fill="#ffffff"><g><rect width="100%" height="40" stroke="none" fill="white" class="sc-fqkvVR eDtKfR"></rect><rect y="40" width="100%" height="120" stroke="none" fill="white" class="sc-fqkvVR eDtKfR"></rect><svg height="40"><text x="50%" y="50%" dominant-baseline="middle" text-anchor="middle" font-weight="bold" pointer-events="none">Gateway</text></svg><svg x="0" y="40.5" width="159" height="30" class="macAddress" fill="#ffffff"><g><rect width="100%" height="100%" stroke="none" fill="white" class="sc-fqkvVR eDtKfR"></rect><text x="10" y="50%" dominant-baseline="middle" text-anchor="start" font-weight="normal" pointer-events="none">macAddress</text></g></svg><svg x="0" y="70.5" width="159" height="30" class="name" fill="#ffffff"><g><rect width="100%" height="100%" stroke="none" fill="white" class="sc-fqkvVR eDtKfR"></rect><text x="10" y="50%" dominant-baseline="middle" text-anchor="start" font-weight="normal" pointer-events="none">name</text></g></svg><svg x="0" y="100.5" width="159" height="30" class="description" fill="#ffffff"><g><rect width="100%" height="100%" stroke="none" fill="white" class="sc-fqkvVR eDtKfR"></rect><text x="10" y="50%" dominant-baseline="middle" text-anchor="start" font-weight="normal" pointer-events="none">description</text></g></svg><svg x="0" y="130.5" width="159" height="30" class="sensors" fill="#ffffff"><g><rect width="100%" height="100%" stroke="none" fill="white" class="sc-fqkvVR eDtKfR"></rect><text x="10" y="50%" dominant-baseline="middle" text-anchor="start" font-weight="normal" pointer-events="none">sensors</text></g></svg><rect width="100%" height="100%" stroke="black" fill="none" class="sc-fqkvVR jAaomD"></rect><path d="M 0 40 H 160" stroke="black" fill="white" class="sc-gEvEer fkqzOi"></path></g></svg><svg x="245" y="295" width="160" height="190" class="Sensore" fill="#ffffff"><g><rect width="100%" height="40" stroke="none" fill="white" class="sc-fqkvVR eDtKfR"></rect><rect y="40" width="100%" height="150" stroke="none" fill="white" class="sc-fqkvVR eDtKfR"></rect><svg height="40"><text x="50%" y="50%" dominant-baseline="middle" text-anchor="middle" font-weight="bold" pointer-events="none">Sensore</text></svg><svg x="0" y="40.5" width="159" height="30" class="macAddress" fill="#ffffff"><g><rect width="100%" height="100%" stroke="none" fill="white" class="sc-fqkvVR eDtKfR"></rect><text x="10" y="50%" dominant-baseline="middle" text-anchor="start" font-weight="normal" pointer-events="none">macAddress</text></g></svg><svg x="0" y="70.5" width="159" height="30" class="name" fill="#ffffff"><g><rect width="100%" height="100%" stroke="none" fill="white" class="sc-fqkvVR eDtKfR"></rect><text x="10" y="50%" dominant-baseline="middle" text-anchor="start" font-weight="normal" pointer-events="none">name</text></g></svg><svg x="0" y="100.5" width="159" height="30" class="description" fill="#ffffff"><g><rect width="100%" height="100%" stroke="none" fill="white" class="sc-fqkvVR eDtKfR"></rect><text x="10" y="50%" dominant-baseline="middle" text-anchor="start" font-weight="normal" pointer-events="none">description</text></g></svg><svg x="0" y="130.5" width="159" height="30" class="variable" fill="#ffffff"><g><rect width="100%" height="100%" stroke="none" fill="white" class="sc-fqkvVR eDtKfR"></rect><text x="10" y="50%" dominant-baseline="middle" text-anchor="start" font-weight="normal" pointer-events="none">variable</text></g></svg><svg x="0" y="160.5" width="159" height="30" class="unit" fill="#ffffff"><g><rect width="100%" height="100%" stroke="none" fill="white" class="sc-fqkvVR eDtKfR"></rect><text x="10" y="50%" dominant-baseline="middle" text-anchor="start" font-weight="normal" pointer-events="none">unit</text></g></svg><rect width="100%" height="100%" stroke="black" fill="none" class="sc-fqkvVR jAaomD"></rect><path d="M 0 40 H 160" stroke="black" fill="white" class="sc-gEvEer fkqzOi"></path></g></svg><svg x="545" y="285" width="160" height="130" class="Misurazione" fill="#ffffff"><g><rect width="100%" height="40" stroke="none" fill="white" class="sc-fqkvVR eDtKfR"></rect><rect y="40" width="100%" height="90" stroke="none" fill="white" class="sc-fqkvVR eDtKfR"></rect><svg height="40"><text x="50%" y="50%" dominant-baseline="middle" text-anchor="middle" font-weight="bold" pointer-events="none">Misurazione</text></svg><svg x="0" y="40.5" width="159" height="30" class="createdAt" fill="#ffffff"><g><rect width="100%" height="100%" stroke="none" fill="white" class="sc-fqkvVR eDtKfR"></rect><text x="10" y="50%" dominant-baseline="middle" text-anchor="start" font-weight="normal" pointer-events="none">createdAt</text></g></svg><svg x="0" y="70.5" width="159" height="30" class="value" fill="#ffffff"><g><rect width="100%" height="100%" stroke="none" fill="white" class="sc-fqkvVR eDtKfR"></rect><text x="10" y="50%" dominant-baseline="middle" text-anchor="start" font-weight="normal" pointer-events="none">value</text></g></svg><svg x="0" y="100.5" width="159" height="30" class="isOutlier" fill="#ffffff"><g><rect width="100%" height="100%" stroke="none" fill="white" class="sc-fqkvVR eDtKfR"></rect><text x="10" y="50%" dominant-baseline="middle" text-anchor="start" font-weight="normal" pointer-events="none">isOutlier</text></g></svg><rect width="100%" height="100%" stroke="black" fill="none" class="sc-fqkvVR jAaomD"></rect><path d="M 0 40 H 160" stroke="black" fill="white" class="sc-gEvEer fkqzOi"></path></g></svg><svg x="455" y="485" width="160" height="220" class="Stats" fill="#ffffff"><g><rect width="100%" height="40" stroke="none" fill="white" class="sc-fqkvVR eDtKfR"></rect><rect y="40" width="100%" height="180" stroke="none" fill="white" class="sc-fqkvVR eDtKfR"></rect><svg height="40"><text x="50%" y="50%" dominant-baseline="middle" text-anchor="middle" font-weight="bold" pointer-events="none">Stats</text></svg><svg x="0" y="40.5" width="159" height="30" class="startDate" fill="#ffffff"><g><rect width="100%" height="100%" stroke="none" fill="white" class="sc-fqkvVR eDtKfR"></rect><text x="10" y="50%" dominant-baseline="middle" text-anchor="start" font-weight="normal" pointer-events="none">startDate</text></g></svg><svg x="0" y="70.5" width="159" height="30" class="endDate" fill="#ffffff"><g><rect width="100%" height="100%" stroke="none" fill="white" class="sc-fqkvVR eDtKfR"></rect><text x="10" y="50%" dominant-baseline="middle" text-anchor="start" font-weight="normal" pointer-events="none">endDate</text></g></svg><svg x="0" y="100.5" width="159" height="30" class="mean" fill="#ffffff"><g><rect width="100%" height="100%" stroke="none" fill="white" class="sc-fqkvVR eDtKfR"></rect><text x="10" y="50%" dominant-baseline="middle" text-anchor="start" font-weight="normal" pointer-events="none">mean</text></g></svg><svg x="0" y="130.5" width="159" height="30" class="variance" fill="#ffffff"><g><rect width="100%" height="100%" stroke="none" fill="white" class="sc-fqkvVR eDtKfR"></rect><text x="10" y="50%" dominant-baseline="middle" text-anchor="start" font-weight="normal" pointer-events="none">variance</text></g></svg><svg x="0" y="160.5" width="159" height="30" class="upperThreshold" fill="#ffffff"><g><rect width="100%" height="100%" stroke="none" fill="white" class="sc-fqkvVR eDtKfR"></rect><text x="10" y="50%" dominant-baseline="middle" text-anchor="start" font-weight="normal" pointer-events="none">upperThreshold</text></g></svg><svg x="0" y="190.5" width="159" height="30" class="lowerThreshold" fill="#ffffff"><g><rect width="100%" height="100%" stroke="none" fill="white" class="sc-fqkvVR eDtKfR"></rect><text x="10" y="50%" dominant-baseline="middle" text-anchor="start" font-weight="normal" pointer-events="none">lowerThreshold</text></g></svg><rect width="100%" height="100%" stroke="black" fill="none" class="sc-fqkvVR jAaomD"></rect><path d="M 0 40 H 160" stroke="black" fill="white" class="sc-gEvEer fkqzOi"></path></g></svg><svg x="815" y="225" width="160" height="40" class="Admin" fill="#ffffff"><g><rect width="100%" height="40" stroke="none" fill="white" class="sc-fqkvVR eDtKfR"></rect><rect y="40" width="100%" height="0" stroke="none" fill="white" class="sc-fqkvVR eDtKfR"></rect><svg height="40"><text x="50%" y="50%" dominant-baseline="middle" text-anchor="middle" font-weight="bold" pointer-events="none">Admin</text></svg><rect width="100%" height="100%" stroke="black" fill="none" class="sc-fqkvVR jAaomD"></rect></g></svg><svg x="815" y="325" width="160" height="40" class="Operator" fill="#ffffff"><g><rect width="100%" height="40" stroke="none" fill="white" class="sc-fqkvVR eDtKfR"></rect><rect y="40" width="100%" height="0" stroke="none" fill="white" class="sc-fqkvVR eDtKfR"></rect><svg height="40"><text x="50%" y="50%" dominant-baseline="middle" text-anchor="middle" font-weight="bold" pointer-events="none">Operator</text></svg><rect width="100%" height="100%" stroke="black" fill="none" class="sc-fqkvVR jAaomD"></rect></g></svg><svg x="815" y="435" width="160" height="40" class="viewer" fill="#ffffff"><g><rect width="100%" height="40" stroke="none" fill="white" class="sc-fqkvVR eDtKfR"></rect><rect y="40" width="100%" height="0" stroke="none" fill="white" class="sc-fqkvVR eDtKfR"></rect><svg height="40"><text x="50%" y="50%" dominant-baseline="middle" text-anchor="middle" font-weight="bold" pointer-events="none">viewer</text></svg><rect width="100%" height="100%" stroke="black" fill="none" class="sc-fqkvVR jAaomD"></rect></g></svg><svg x="175" y="135" width="260" height="48" class="" fill="#ffffff"><g><polyline points="0 10,260 10" stroke-width="1" marker-end="url(#marker-d6812c56-5b97-4815-b284-6c4932d24b52)" stroke="black" fill="none" class="sc-aXZVg eMElBf"></polyline><text x="8" y="10" dy="21" text-anchor="start" pointer-events="none">1</text><text x="252" y="10" dy="21" text-anchor="end" pointer-events="none">1..*</text><text x="8" y="10" dy="-10" text-anchor="start" pointer-events="none"></text><text x="252" y="10" dy="-10" text-anchor="end" pointer-events="none"></text><text x="130" y="10" dy="-5" dominant-baseline="text-after-edge" text-anchor="middle" pointer-events="none"> </text></g></svg><svg x="320" y="195" width="208.90625" height="109" class="" fill="#ffffff"><g><polyline points="195 0,195 50,5 50,5 100" stroke-width="1" marker-end="url(#marker-04f410ea-1113-4ffe-9891-8a55f231998d)" stroke="black" fill="none" class="sc-aXZVg eMElBf"></polyline><text x="195" y="8" dx="5" dy="10" text-anchor="start" pointer-events="none">1</text><text x="5" y="92" dx="5" text-anchor="start" pointer-events="none">1..*</text><text x="195" y="8" dx="-5" dy="10" text-anchor="end" pointer-events="none"></text><text x="5" y="92" dx="-5" text-anchor="end" pointer-events="none"></text><text x="5" y="75" dx="5" dominant-baseline="middle" text-anchor="start" pointer-events="none"> </text></g></svg><svg x="405" y="345" width="140" height="48" class="" fill="#ffffff"><g><polyline points="0 10,140 10" stroke-width="1" marker-end="url(#marker-f5d5bf31-a6a0-4995-9aad-9fd6797577c9)" stroke="black" fill="none" class="sc-aXZVg eMElBf"></polyline><text x="8" y="10" dy="21" text-anchor="start" pointer-events="none">1</text><text x="132" y="10" dy="21" text-anchor="end" pointer-events="none">0..*</text><text x="8" y="10" dy="-10" text-anchor="start" pointer-events="none"></text><text x="132" y="10" dy="-10" text-anchor="end" pointer-events="none"></text><text x="70" y="10" dy="-5" dominant-baseline="text-after-edge" text-anchor="middle" pointer-events="none"> </text></g></svg><svg x="575" y="415" width="34.7890625" height="79" class="" fill="#ffffff"><g><polyline points="5 0,5 70" stroke-width="1" marker-end="url(#marker-5803fbac-518d-4d47-ae66-1da369f9df76)" stroke="black" fill="none" class="sc-aXZVg eMElBf"></polyline><text x="5" y="8" dx="5" dy="10" text-anchor="start" pointer-events="none">1..*</text><text x="5" y="62" dx="5" text-anchor="start" pointer-events="none">1..*</text><text x="5" y="8" dx="-5" dy="10" text-anchor="end" pointer-events="none"></text><text x="5" y="62" dx="-5" text-anchor="end" pointer-events="none"></text><text x="5" y="35" dx="5" dominant-baseline="middle" text-anchor="start" pointer-events="none"> </text></g></svg><svg x="890" y="365" width="10" height="70" class="" fill="#ffffff"><g><marker id="marker-165abb03-c5eb-4e84-a062-d1932b246de0" viewBox="0 0 30 30" markerWidth="22" markerHeight="30" refX="30" refY="15" orient="auto" markerUnits="strokeWidth"><path d="M0,1 L0,29 L30,15 z" stroke="black" fill="white" class="sc-gEvEer fkqzOi"></path></marker><polyline points="5 70,5 0" stroke-width="1" marker-end="url(#marker-165abb03-c5eb-4e84-a062-d1932b246de0)" stroke="black" fill="none" class="sc-aXZVg eMElBf"></polyline><text x="5" y="62" dx="5" text-anchor="start" pointer-events="none"></text><text x="5" y="31" dx="5" dy="10" text-anchor="start" pointer-events="none"></text><text x="5" y="62" dx="-5" text-anchor="end" pointer-events="none"></text><text x="5" y="31" dx="-5" dy="10" text-anchor="end" pointer-events="none"></text><text x="5" y="35" dx="5" dominant-baseline="middle" text-anchor="start" pointer-events="none"> </text></g></svg><svg x="890" y="265" width="10" height="60" class="" fill="#ffffff"><g><marker id="marker-9e4a8ed8-9e8e-41fd-a115-7eaec6c52671" viewBox="0 0 30 30" markerWidth="22" markerHeight="30" refX="30" refY="15" orient="auto" markerUnits="strokeWidth"><path d="M0,1 L0,29 L30,15 z" stroke="black" fill="white" class="sc-gEvEer fkqzOi"></path></marker><polyline points="5 60,5 0" stroke-width="1" marker-end="url(#marker-9e4a8ed8-9e8e-41fd-a115-7eaec6c52671)" stroke="black" fill="none" class="sc-aXZVg eMElBf"></polyline><text x="5" y="52" dx="5" text-anchor="start" pointer-events="none"></text><text x="5" y="31" dx="5" dy="10" text-anchor="start" pointer-events="none"></text><text x="5" y="52" dx="-5" text-anchor="end" pointer-events="none"></text><text x="5" y="31" dx="-5" dy="10" text-anchor="end" pointer-events="none"></text><text x="5" y="30" dx="5" dominant-baseline="middle" text-anchor="start" pointer-events="none"> </text></g></svg><svg x="865" y="145" width="10" height="80" class="" fill="#ffffff"><g><marker id="marker-65d1ec4c-83e6-45f6-b0d9-bca80e95a1fb" viewBox="0 0 30 30" markerWidth="22" markerHeight="30" refX="30" refY="15" orient="auto" markerUnits="strokeWidth"><path d="M0,1 L0,29 L30,15 z" stroke="black" fill="white" class="sc-gEvEer fkqzOi"></path></marker><polyline points="5 80,5 0" stroke-width="1" marker-end="url(#marker-65d1ec4c-83e6-45f6-b0d9-bca80e95a1fb)" stroke="black" fill="none" class="sc-aXZVg eMElBf"></polyline><text x="5" y="72" dx="5" text-anchor="start" pointer-events="none"></text><text x="5" y="31" dx="5" dy="10" text-anchor="start" pointer-events="none"></text><text x="5" y="72" dx="-5" text-anchor="end" pointer-events="none"></text><text x="5" y="31" dx="-5" dy="10" text-anchor="end" pointer-events="none"></text><text x="5" y="40" dx="5" dominant-baseline="middle" text-anchor="start" pointer-events="none"> </text></g></svg></svg>